<svg data-v-423bf9ae="" xmlns="http://www.w3.org/2000/svg" viewBox="0 0 440.2443449758977 245" class="iconAboveSlogan"><!----><!----><!----><g data-v-423bf9ae="" id="0b35a9c9-cf26-4364-a4a4-8491e23a9ea2" fill="white" transform="matrix(5.639097562403148,0,0,5.639097562403148,-3.4962348066210893,83.71428829053804)"><path d="M5.89 7.25C5.89 7.53 5.75 7.67 5.47 7.67L3.04 7.67L3.04 6.09L5.47 6.09C5.75 6.09 5.89 6.23 5.89 6.51ZM3.04 14.06L3.04 10.04L6.38 10.04C7.66 10.04 8.30 9.42 8.30 8.20L8.30 5.40C8.30 4.07 7.66 3.42 6.38 3.42L0.62 3.42L0.62 14.06ZM14.13 11.52C14.13 11.70 14.03 11.80 13.85 11.80L11.80 11.80C11.62 11.80 11.52 11.70 11.52 11.52L11.52 10.95C11.52 10.77 11.62 10.67 11.80 10.67L13.85 10.67C14.03 10.67 14.13 10.77 14.13 10.95ZM14.66 14.06C15.92 14.06 16.55 13.41 16.55 12.12L16.55 7.77C16.55 6.48 15.89 5.84 14.59 5.84L9.44 5.84L9.44 8.13L13.71 8.13C13.99 8.13 14.13 8.27 14.13 8.55L14.13 9.17C14 9.11 13.85 9.07 13.66 9.07L10.91 9.07C9.72 9.07 9.11 9.70 9.11 10.98L9.11 12.19C9.11 13.44 9.72 14.06 10.91 14.06ZM20.16 14.06L20.16 8.68C20.16 8.40 20.30 8.26 20.58 8.26L22.37 8.26L22.37 5.84L19.66 5.84C18.33 5.84 17.72 6.50 17.72 7.77L17.72 14.06ZM27.45 14.06L27.45 11.63L25.93 11.63C25.69 11.63 25.56 11.48 25.56 11.16L25.56 8.13L27.47 8.13L27.47 5.92L25.56 5.92L25.56 3.56L23.14 3.56L23.14 12.25C23.14 13.45 23.81 14.06 25.14 14.06ZM35.76 14.06L35.76 7.77C35.76 6.48 35.11 5.84 33.84 5.84L30.80 5.84L30.80 3.42L28.38 3.42L28.38 14.06L30.80 14.06L30.80 8.27L32.91 8.27C33.19 8.27 33.33 8.41 33.33 8.69L33.33 14.06ZM44.51 14.06L41.76 9.31L44.00 5.84L41.37 5.84L39.40 8.96L39.40 3.42L36.97 3.42L36.97 14.06L39.40 14.06L39.40 10.12L41.54 14.06ZM50.25 14.06C51.49 14.06 52.12 13.41 52.12 12.14L52.12 5.84L49.73 5.84L49.73 11.21C49.73 11.49 49.59 11.63 49.31 11.63L47.67 11.63C47.39 11.63 47.25 11.48 47.25 11.19L47.25 5.84L44.83 5.84L44.83 12.19C44.83 13.44 45.49 14.06 46.79 14.06ZM64.36 14.06L64.36 7.78C64.36 6.48 63.73 5.84 62.45 5.84L55.23 5.84C53.96 5.84 53.31 6.48 53.31 7.77L53.31 14.06L55.71 14.06L55.71 8.69C55.71 8.41 55.85 8.27 56.13 8.27L57.64 8.27L57.64 14.06L60.03 14.06L60.03 8.27L61.57 8.27C61.84 8.27 61.99 8.41 61.99 8.69L61.99 14.06ZM70.45 11.52C70.45 11.70 70.35 11.80 70.17 11.80L68.12 11.80C67.94 11.80 67.84 11.70 67.84 11.52L67.84 10.95C67.84 10.77 67.94 10.67 68.12 10.67L70.17 10.67C70.35 10.67 70.45 10.77 70.45 10.95ZM70.98 14.06C72.24 14.06 72.87 13.41 72.87 12.12L72.87 7.77C72.87 6.48 72.21 5.84 70.91 5.84L65.76 5.84L65.76 8.13L70.03 8.13C70.31 8.13 70.45 8.27 70.45 8.55L70.45 9.17C70.32 9.11 70.17 9.07 69.99 9.07L67.23 9.07C66.04 9.07 65.44 9.70 65.44 10.98L65.44 12.19C65.44 13.44 66.04 14.06 67.23 14.06ZM76.48 14.06L76.48 8.68C76.48 8.40 76.62 8.26 76.90 8.26L78.69 8.26L78.69 5.84L75.98 5.84C74.65 5.84 74.05 6.50 74.05 7.77L74.05 14.06Z"></path></g><!----><g data-v-423bf9ae="" id="5404ecfa-80bc-487a-b326-04c3583a3c92" transform="matrix(2.8125,0,0,2.8125,175.80559581518173,0)" stroke="none" fill="white"><path d="M18.396 26.495L7.807 15.905 18.432 5.28l.707.707-9.918 9.918 9.882 9.883z"></path><path d="M23.194 1v4.194H19V1h4.194m1-1H18v6.194h6.194V0zM23.194 26.806V31H19v-4.194h4.194m1-1H18V32h6.194v-6.194z"></path></g><!----><g data-v-423bf9ae="" id="3dc82e5a-4d8b-417c-a802-778da344b628" fill="white" transform="matrix(6.591428447616992,0,0,6.591428447616992,59.82236475866932,170.8780622767013)"><path d="M5.65 2.63Q5.36 1.84 4.65 1.42L4.65 1.42Q3.99 1.03 3.10 1.02L3.10 1.02Q2.09 1.00 0.83 1.39L0.83 1.39Q0.11 1.61 0.16 1.80L0.16 1.80Q0.23 2.04 0.95 1.83L0.95 1.83Q1.14 1.76 1.33 1.72L1.33 1.72Q1.34 1.72 1.39 1.70L1.39 1.70Q1.44 1.69 1.46 1.69L1.46 1.69Q1.52 1.67 1.59 1.66L1.59 1.66Q1.65 1.65 1.76 1.63L1.76 1.63Q1.76 1.63 1.86 1.62L1.86 1.62Q1.93 1.61 2.06 1.61L2.06 1.61Q2.06 1.61 2.15 1.61L2.15 1.61Q2.88 1.61 3.44 2.00L3.44 2.00Q4.05 2.43 4.27 3.27L4.27 3.27Q4.46 3.98 4.35 4.81L4.35 4.81Q4.10 6.56 2.91 7.40L2.91 7.40Q2.87 7.42 2.81 7.46L2.81 7.46Q2.82 7.46 2.80 7.46L2.80 7.46Q2.79 7.47 2.77 7.48L2.77 7.48Q2.71 7.48 2.71 7.49L2.71 7.49Q2.61 7.49 2.53 7.47L2.53 7.47Q1.85 7.36 1.78 6.66L1.78 6.66Q1.77 6.60 1.67 6.58L1.67 6.58Q1.68 6.55 1.70 6.49L1.70 6.49Q1.70 6.44 1.71 6.42L1.71 6.42Q2.25 3.25 2.57 2.24L2.57 2.24Q2.65 1.98 1.99 2.10L1.99 2.10Q1.68 2.15 1.43 2.27L1.43 2.27Q1.16 2.40 1.13 2.50L1.13 2.50Q0.81 3.51 0.25 6.77L0.25 6.77Q0.01 8.13-0.21 8.89L-0.21 8.89Q-0.66 10.44-0.70 10.94L-0.70 10.94Q-0.70 11.01-0.48 11.02L-0.48 11.02Q-0.27 11.03 0.01 10.98L0.01 10.98Q0.74 10.84 0.77 10.55L0.77 10.55Q0.80 10.13 1.26 8.54L1.26 8.54Q1.33 8.31 1.39 8.03L1.39 8.03Q2.03 8.13 2.88 7.92L2.88 7.92Q4.59 7.52 5.42 5.75L5.42 5.75Q6.20 4.09 5.65 2.63L5.65 2.63ZM13.99 9.01Q13.53 9.63 13.41 9.78L13.41 9.78Q13.36 9.69 13.33 9.60L13.33 9.60Q13.11 8.99 13.26 7.95L13.26 7.95Q13.38 7.14 13.78 6.16L13.78 6.16Q13.93 5.80 14.13 5.44L14.13 5.44Q14.26 5.22 14.43 5.04L14.43 5.04Q14.59 4.88 14.83 4.70L14.83 4.70Q14.84 4.69 14.85 4.68L14.85 4.68Q14.86 4.68 14.89 4.66L14.89 4.66Q14.93 4.63 15.00 4.58L15.00 4.58Q15.00 4.58 15.01 4.57L15.01 4.57Q15.22 4.74 15.18 5.37L15.18 5.37Q15.18 5.48 15.60 5.44L15.60 5.44Q15.49 5.98 15.27 6.88L15.27 6.88Q14.90 7.77 13.99 9.01L13.99 9.01ZM17.10 4.85Q17.10 4.72 16.65 4.77L16.65 4.77Q16.63 4.17 16.26 4.01L16.26 4.01Q15.67 3.75 14.64 4.17L14.64 4.17Q13.22 4.74 12.63 5.81L12.63 5.81Q11.69 7.56 11.75 9.26L11.75 9.26Q11.78 10.25 12.26 10.56L12.26 10.56Q12.49 10.71 13.09 10.63L13.09 10.63Q13.65 10.55 14.12 10.22L14.12 10.22Q14.39 10.04 14.66 9.75L14.66 9.75Q14.58 10.31 14.55 10.81L14.55 10.81Q14.54 10.88 14.77 10.90L14.77 10.90Q14.98 10.90 15.26 10.85L15.26 10.85Q15.98 10.71 16.00 10.42L16.00 10.42Q16.08 9.17 16.70 6.64L16.70 6.64Q17.07 5.73 17.10 4.85L17.10 4.85ZM27.85 4.08Q27.30 4.06 26.54 4.06L26.54 4.06Q26.80 3.21 27.19 2.17L27.19 2.17Q27.28 1.92 26.61 2.04L26.61 2.04Q25.84 2.18 25.74 2.44L25.74 2.44Q25.42 3.32 25.18 4.08L25.18 4.08Q24.97 4.08 24.82 4.08L24.82 4.08Q24.23 4.08 23.79 4.36L23.79 4.36Q23.61 4.47 23.63 4.57L23.63 4.57Q23.66 4.67 23.87 4.67L23.87 4.67Q24.18 4.67 25.00 4.66L25.00 4.66Q24.68 5.76 24.49 6.75L24.49 6.75Q24.43 7.12 24.34 7.70L24.34 7.70Q24.23 8.47 24.21 8.65L24.21 8.65Q24.03 9.73 24.32 10.40L24.32 10.40Q24.59 11.02 25.16 11.02L25.16 11.02Q26.20 11.01 26.84 10.36L26.84 10.36Q27.71 9.47 27.86 8.22L27.86 8.22Q27.86 8.16 27.64 8.15L27.64 8.15Q27.43 8.13 27.15 8.19L27.15 8.19Q26.43 8.32 26.39 8.61L26.39 8.61Q26.30 9.32 25.81 10.09L25.81 10.09Q25.65 9.79 25.60 9.34L25.60 9.34Q25.55 8.91 25.74 7.82L25.74 7.82Q25.77 7.63 25.89 6.88L25.89 6.88Q25.97 6.30 26.05 5.93L26.05 5.93Q26.18 5.32 26.37 4.66L26.37 4.66Q26.67 4.66 26.90 4.67L26.90 4.67Q27.44 4.70 27.93 4.40L27.93 4.40Q28.11 4.29 28.08 4.19L28.08 4.19Q28.05 4.09 27.85 4.08L27.85 4.08ZM36.33 7.05Q36.42 6.66 36.50 6.31L36.50 6.31Q36.70 5.80 36.97 5.24L36.97 5.24Q37.10 4.99 37.26 4.76L37.26 4.76Q37.32 4.68 37.40 4.59L37.40 4.59Q37.38 4.61 37.42 4.57L37.42 4.57Q37.45 4.59 37.49 4.61L37.49 4.61Q37.76 4.82 37.82 5.46L37.82 5.46Q37.90 6.01 37.65 6.95L37.65 6.95Q36.85 6.97 36.33 7.05L36.33 7.05ZM36.10 10.48Q36.10 10.48 36.10 10.48L36.10 10.48Q36.10 10.48 36.08 10.49L36.08 10.49Q36.09 10.49 36.10 10.48L36.10 10.48ZM37.60 4.42L37.60 4.42Q37.60 4.42 37.60 4.41L37.60 4.41Q37.60 4.42 37.60 4.42L37.60 4.42ZM39.29 5.11Q39.25 4.50 38.91 4.17L38.91 4.17Q38.54 3.80 37.56 3.98L37.56 3.98Q36.65 4.14 36.11 4.68L36.11 4.68Q35.75 5.04 35.45 5.69L35.45 5.69Q34.99 6.49 34.75 8.04L34.75 8.04Q34.62 8.93 34.63 9.63L34.63 9.63Q34.63 10.77 35.34 10.94L35.34 10.94Q35.81 11.06 36.64 10.78L36.64 10.78Q37.14 10.62 37.60 10.23L37.60 10.23Q38.41 9.57 38.56 8.68L38.56 8.68Q38.60 8.44 37.98 8.54L37.98 8.54Q37.67 8.60 37.43 8.72L37.43 8.72Q37.14 8.85 37.13 8.94L37.13 8.94Q37.03 9.50 36.61 10.04L36.61 10.04Q36.51 10.15 36.36 10.28L36.36 10.28Q36.23 10.17 36.15 9.85L36.15 9.85Q36.06 9.51 36.09 8.76L36.09 8.76Q36.13 8.08 36.24 7.53L36.24 7.53Q36.55 7.50 37.08 7.50L37.08 7.50Q37.78 7.51 37.93 7.50L37.93 7.50Q38.16 7.49 38.49 7.38L38.49 7.38Q38.91 7.22 38.96 7.08L38.96 7.08Q39.35 5.92 39.29 5.11L39.29 5.11ZM47.94 0.91Q47.23 2.82 46.66 5.84L46.66 5.84Q45.75 10.69 45.72 10.86L45.72 10.86Q45.66 11.10 46.31 10.99L46.31 10.99Q46.61 10.93 46.86 10.81L46.86 10.81Q47.14 10.68 47.16 10.60L47.16 10.60Q49.44 0.48 49.38 0.65L49.38 0.65Q49.48 0.39 48.80 0.51L48.80 0.51Q48.04 0.65 47.94 0.91L47.94 0.91Z"></path></g></svg>