<svg data-v-fde0c5aa="" xmlns="http://www.w3.org/2000/svg" viewBox="0 0 300 300" class="font"><!----><defs data-v-fde0c5aa=""><!----></defs><rect data-v-fde0c5aa="" fill="transparent" x="0" y="0" width="300px" height="300px" class="logo-background-square"></rect><defs data-v-fde0c5aa=""><linearGradient data-v-fde0c5aa="" gradientTransform="rotate(25)" id="14975be3-30c2-458f-8d6b-7d3c38805827" x1="0%" y1="0%" x2="100%" y2="0%"><stop data-v-fde0c5aa="" offset="0%" stop-color="#395ECA" stop-opacity="1"></stop><stop data-v-fde0c5aa="" offset="100%" stop-color="#848BD8" stop-opacity="1"></stop></linearGradient></defs><g data-v-fde0c5aa="" id="4839c445-5ff5-4e3d-9bb3-e6ada9cb88fe" fill="url(#14975be3-30c2-458f-8d6b-7d3c38805827)" transform="matrix(2.8179838716533934,0,0,2.8179838716533934,38.252849986137704,125.37082026301525)"><path d="M5.89 7.25C5.89 7.53 5.75 7.67 5.47 7.67L3.04 7.67L3.04 6.09L5.47 6.09C5.75 6.09 5.89 6.23 5.89 6.51ZM3.04 14.06L3.04 10.04L6.38 10.04C7.66 10.04 8.30 9.42 8.30 8.20L8.30 5.40C8.30 4.07 7.66 3.42 6.38 3.42L0.62 3.42L0.62 14.06ZM14.13 11.52C14.13 11.70 14.03 11.80 13.85 11.80L11.80 11.80C11.62 11.80 11.52 11.70 11.52 11.52L11.52 10.95C11.52 10.77 11.62 10.67 11.80 10.67L13.85 10.67C14.03 10.67 14.13 10.77 14.13 10.95ZM14.66 14.06C15.92 14.06 16.55 13.41 16.55 12.12L16.55 7.77C16.55 6.48 15.89 5.84 14.59 5.84L9.44 5.84L9.44 8.13L13.71 8.13C13.99 8.13 14.13 8.27 14.13 8.55L14.13 9.17C14 9.11 13.85 9.07 13.66 9.07L10.91 9.07C9.72 9.07 9.11 9.70 9.11 10.98L9.11 12.19C9.11 13.44 9.72 14.06 10.91 14.06ZM20.16 14.06L20.16 8.68C20.16 8.40 20.30 8.26 20.58 8.26L22.37 8.26L22.37 5.84L19.66 5.84C18.33 5.84 17.72 6.50 17.72 7.77L17.72 14.06ZM27.45 14.06L27.45 11.63L25.93 11.63C25.69 11.63 25.56 11.48 25.56 11.16L25.56 8.13L27.47 8.13L27.47 5.92L25.56 5.92L25.56 3.56L23.14 3.56L23.14 12.25C23.14 13.45 23.81 14.06 25.14 14.06ZM35.76 14.06L35.76 7.77C35.76 6.48 35.11 5.84 33.84 5.84L30.80 5.84L30.80 3.42L28.38 3.42L28.38 14.06L30.80 14.06L30.80 8.27L32.91 8.27C33.19 8.27 33.33 8.41 33.33 8.69L33.33 14.06ZM44.51 14.06L41.76 9.31L44.00 5.84L41.37 5.84L39.40 8.96L39.40 3.42L36.97 3.42L36.97 14.06L39.40 14.06L39.40 10.12L41.54 14.06ZM50.25 14.06C51.49 14.06 52.12 13.41 52.12 12.14L52.12 5.84L49.73 5.84L49.73 11.21C49.73 11.49 49.59 11.63 49.31 11.63L47.67 11.63C47.39 11.63 47.25 11.48 47.25 11.19L47.25 5.84L44.83 5.84L44.83 12.19C44.83 13.44 45.49 14.06 46.79 14.06ZM64.36 14.06L64.36 7.78C64.36 6.48 63.73 5.84 62.45 5.84L55.23 5.84C53.96 5.84 53.31 6.48 53.31 7.77L53.31 14.06L55.71 14.06L55.71 8.69C55.71 8.41 55.85 8.27 56.13 8.27L57.64 8.27L57.64 14.06L60.03 14.06L60.03 8.27L61.57 8.27C61.84 8.27 61.99 8.41 61.99 8.69L61.99 14.06ZM70.45 11.52C70.45 11.70 70.35 11.80 70.17 11.80L68.12 11.80C67.94 11.80 67.84 11.70 67.84 11.52L67.84 10.95C67.84 10.77 67.94 10.67 68.12 10.67L70.17 10.67C70.35 10.67 70.45 10.77 70.45 10.95ZM70.98 14.06C72.24 14.06 72.87 13.41 72.87 12.12L72.87 7.77C72.87 6.48 72.21 5.84 70.91 5.84L65.76 5.84L65.76 8.13L70.03 8.13C70.31 8.13 70.45 8.27 70.45 8.55L70.45 9.17C70.32 9.11 70.17 9.07 69.99 9.07L67.23 9.07C66.04 9.07 65.44 9.70 65.44 10.98L65.44 12.19C65.44 13.44 66.04 14.06 67.23 14.06ZM76.48 14.06L76.48 8.68C76.48 8.40 76.62 8.26 76.90 8.26L78.69 8.26L78.69 5.84L75.98 5.84C74.65 5.84 74.05 6.50 74.05 7.77L74.05 14.06Z"></path></g><!----><!----></svg>